<svg xmlns="http://www.w3.org/2000/svg" viewBox="0 0 120 120" width="120" height="120">
  <!-- A clever little brain-bulb -->
  <!-- Bulb -->
  <path d="M 60 30 Q 88 30 88 56 Q 88 72 76 82 L 76 92 L 44 92 L 44 82 Q 32 72 32 56 Q 32 30 60 30 Z"
        fill="#FFE48A" stroke="#3A1F2A" stroke-width="4" stroke-linejoin="round"/>
  <!-- Brain swirl -->
  <path d="M 50 56 Q 50 48 56 48 Q 60 48 60 54 Q 60 48 64 48 Q 70 48 70 56" fill="none" stroke="#3A1F2A" stroke-width="3" stroke-linecap="round"/>
  <path d="M 48 64 Q 52 60 56 64 Q 60 60 64 64 Q 68 60 72 64" fill="none" stroke="#3A1F2A" stroke-width="3" stroke-linecap="round"/>
  <!-- Base lines -->
  <line x1="44" y1="96" x2="76" y2="96" stroke="#3A1F2A" stroke-width="3" stroke-linecap="round"/>
  <line x1="48" y1="102" x2="72" y2="102" stroke="#3A1F2A" stroke-width="3" stroke-linecap="round"/>
  <!-- Sparkles around -->
  <path d="M 22 40 L 26 44 L 22 48 L 18 44 Z" fill="#FFFFFF"/>
  <path d="M 96 38 L 100 42 L 96 46 L 92 42 Z" fill="#FFFFFF"/>
</svg>
