<svg xmlns="http://www.w3.org/2000/svg" viewBox="0 0 120 120" width="120" height="120">
  <!-- Brave lion face. Goofy not scary. -->
  <!-- Mane -->
  <g fill="#D88243" stroke="#3A1F2A" stroke-width="3">
    <circle cx="22" cy="48" r="11"/>
    <circle cx="22" cy="72" r="11"/>
    <circle cx="98" cy="48" r="11"/>
    <circle cx="98" cy="72" r="11"/>
    <circle cx="32" cy="32" r="10"/>
    <circle cx="60" cy="22" r="11"/>
    <circle cx="88" cy="32" r="10"/>
    <circle cx="40" cy="96" r="10"/>
    <circle cx="80" cy="96" r="10"/>
  </g>
  <!-- Face -->
  <circle cx="60" cy="60" r="30" fill="#FFC684" stroke="#3A1F2A" stroke-width="4"/>
  <!-- Snout patch -->
  <ellipse cx="60" cy="70" rx="14" ry="9" fill="#FFE2B8"/>
  <!-- Eyes -->
  <circle cx="50" cy="56" r="3.5" fill="#3A1F2A"/>
  <circle cx="70" cy="56" r="3.5" fill="#3A1F2A"/>
  <!-- Nose -->
  <path d="M 56 64 L 64 64 L 60 70 Z" fill="#3A1F2A"/>
  <!-- Mouth -->
  <path d="M 60 70 L 60 76 M 60 76 Q 56 78 52 76 M 60 76 Q 64 78 68 76" fill="none" stroke="#3A1F2A" stroke-width="2.5" stroke-linecap="round"/>
</svg>
