<svg xmlns="http://www.w3.org/2000/svg" viewBox="0 0 120 120" width="120" height="120">
  <!-- Cheeky little poo (cute, not gross) -->
  <path d="M 36 96 Q 24 96 24 86 Q 24 78 32 76 Q 28 70 32 64 Q 36 58 44 60 Q 44 52 52 50 Q 56 44 64 46 Q 70 38 78 44 Q 86 44 86 54 Q 92 56 92 66 Q 96 72 90 78 Q 94 84 86 90 Q 86 96 76 96 Z"
        fill="#7B4B26" stroke="#3A1F2A" stroke-width="4" stroke-linejoin="round"/>
  <!-- Highlights -->
  <ellipse cx="48" cy="68" rx="6" ry="3" fill="#A06B40" opacity="0.6"/>
  <ellipse cx="72" cy="58" rx="6" ry="3" fill="#A06B40" opacity="0.6"/>
  <!-- Eyes -->
  <circle cx="50" cy="78" r="4" fill="#FFFFFF"/>
  <circle cx="50" cy="78" r="2" fill="#3A1F2A"/>
  <circle cx="70" cy="78" r="4" fill="#FFFFFF"/>
  <circle cx="70" cy="78" r="2" fill="#3A1F2A"/>
  <!-- Smile -->
  <path d="M 54 86 Q 60 90 66 86" fill="none" stroke="#3A1F2A" stroke-width="2.5" stroke-linecap="round"/>
</svg>
